# xmcd
#
# Track frame offsets: 
#        150
#        13517
#        24772
#        38835
#        52337
#        63447
#        74167
#        86832
#        99120
#        111322
#        123507
#        135940
#        147012
#        158610
#        172625
#        186065
#        206422
#        220545
#        231210
#        241907
#
# Disc length: 3411 seconds
#
# Revision: 1
# Processed by: cddbd v1.5.2PL0 Copyright (c) Steve Scherf et al.
# Submitted via: ExactAudioCopyFreeDBPlugin 1.0
#
DISCID=060d5114
DTITLE=Amos Milburn - The Complete Aladdin Recordings of Amos Milburn 
DTITLE=[Mosaic box set]
DYEAR=1994
DGENRE=Rhythm and Blues
TTITLE0=After Midnite
TTITLE1=My Baby's Boogying
TTITLE2=Darling How Long
TTITLE3=Down the Road Apiece
TTITLE4=Amos' Blues
TTITLE5=Amos' Boogie
TTITLE6=Don't Beg Me
TTITLE7=Operation Blues
TTITLE8=Cinch Blues
TTITLE9=Everything I Do is Wrong
TTITLE10=My Love is Limited
TTITLE11=Blues at Sundown
TTITLE12=Money Hustlin' Woman
TTITLE13=Sad and Blue
TTITLE14=That's My Chick
TTITLE15=I've Tried to Prove My Love, Dear
TTITLE16=Mean Woman
TTITLE17=Aladdin Boogie
TTITLE18=Nickel Plated Baby
TTITLE19=Real Gone
EXTD=
EXTT0=
EXTT1=
EXTT2=
EXTT3=
EXTT4=
EXTT5=
EXTT6=
EXTT7=
EXTT8=
EXTT9=
EXTT10=
EXTT11=
EXTT12=
EXTT13=
EXTT14=
EXTT15=
EXTT16=
EXTT17=
EXTT18=
EXTT19=
PLAYORDER=
